<?xml version="1.0" encoding="UTF-8" standalone="no"?>
<!DOCTYPE svg PUBLIC "-//W3C//DTD SVG 1.1//EN" "http://www.w3.org/Graphics/SVG/1.1/DTD/svg11.dtd">
<svg width="100%" height="100%" viewBox="0 0 330 296" version="1.1" xmlns="http://www.w3.org/2000/svg" xmlns:xlink="http://www.w3.org/1999/xlink" xml:space="preserve" xmlns:serif="http://www.serif.com/" style="fill-rule:evenodd;clip-rule:evenodd;stroke-linejoin:round;stroke-miterlimit:2;">
    <g transform="matrix(1,0,0,1,-135.785088,-816.336869)">
        <g transform="matrix(1.240303,0,0,1,0,0)">
            <g transform="matrix(0.806254,0,0,1,0,0)">
                <g transform="matrix(1.224609,0,0,1.224609,0,359.402753)">
                    <path d="M131.119,520.75C128.687,515.302 114.981,517.362 116.767,513.617C123.678,499.12 167.595,494.309 168.583,493.615C211.907,463.188 215.755,472.151 270.488,470.554C272.198,470.504 272.538,471.243 271.312,472.294C261.876,480.382 263.524,481.652 257.202,492.341C255.799,494.712 244.451,493.84 238.498,493.771C202.173,493.346 200.721,492.93 200.455,495.633C209.659,495.056 248.15,496.628 254.495,496.311C265.888,495.742 263.987,492.134 265.298,488.428C279.057,449.548 310.419,495.92 317.728,498.077C347.823,506.961 267.123,486.151 218.679,509.856C210.073,514.067 210.003,513.673 200.452,515.215C165.626,520.839 164.385,517.093 162.688,519.617C157.598,527.184 305.256,503.277 203.767,519.881C200.28,520.451 198.558,524.339 195.501,524.524C193.656,524.635 174.476,525.796 172.776,528.647C171.584,530.646 184.275,529.592 185.503,529.556C198.672,529.169 198.421,527.139 199.539,527.347C204.937,528.351 204.863,529.572 223.486,528.302C248.339,526.606 249.922,529.607 252.796,524.653C265.475,502.801 277.562,527.965 276.56,533.513C275.83,537.558 208.896,531.524 134.241,576.05C125.433,581.303 127.012,572.275 117.476,568.563C109.459,565.443 110.616,533.261 111.518,528.506C111.926,526.358 145.723,530.872 152.598,529.723C144.647,523.84 138.587,532.101 131.119,520.75ZM154.317,528.267C155.439,520.897 140.584,520.136 133.524,518.849C133.203,525.521 141.084,519.576 154.317,528.267ZM362.469,540.79C195.602,536.011 156.444,614.194 149.49,614.255C147.577,614.271 125.809,614.462 125.582,614.336C124.559,613.768 124.945,613.054 135.826,603.881C228.6,525.672 328.874,542.025 332.444,536.462C356.392,499.153 342.387,416.427 271.488,410.911C271.335,410.899 185.576,410.762 184.614,410.95C181.977,411.466 183.802,443.477 183.268,459.48C183.151,462.989 147.997,475.982 147.504,475.497C146.701,474.706 147.21,374.497 147.233,374.414C147.623,372.982 148.403,373.09 260.5,373.164C370.479,373.236 395.79,479.486 371.79,540.684C367.837,541.307 367.892,540.951 362.469,540.79ZM191.671,610.619C191.313,611.141 187.81,616.248 184.638,614.249C182.156,612.684 195.623,596.837 196.346,602.54C196.44,603.281 196.005,603.129 191.671,610.619ZM211.237,583.185C215.853,579.654 215.791,579.566 216.453,579.363C223.351,577.247 209.944,591.213 206.804,589.045C206.32,588.711 205.806,588.019 211.237,583.185ZM235.383,570.297C234.995,570.497 228.759,573.71 229.931,570.712C230.459,569.362 243.905,562.113 241.809,566.638C241.561,567.174 241.454,567.138 235.383,570.297Z" style="fill:white;"/>
                </g>
                <g transform="matrix(1.224609,0,0,1.224609,0,359.402753)">
                    <path d="M362.469,540.79C367.892,540.951 367.837,541.307 371.79,540.684C370.224,546.04 359.285,572.349 334.103,592.004C303.035,616.253 275.874,614.764 224.522,614.26C218.704,614.203 233.676,580.577 283.341,560.108C337.679,537.712 355.242,545.947 362.469,540.79Z" style="fill:rgb(112,211,252);"/>
                </g>
            </g>
        </g>
    </g>
</svg>
