<?xml version="1.0" encoding="UTF-8" standalone="no"?>
<!DOCTYPE svg PUBLIC "-//W3C//DTD SVG 1.1//EN" "http://www.w3.org/Graphics/SVG/1.1/DTD/svg11.dtd">
<svg width="100%" height="100%" viewBox="0 0 1278 299" version="1.1" xmlns="http://www.w3.org/2000/svg" xmlns:xlink="http://www.w3.org/1999/xlink" xml:space="preserve" xmlns:serif="http://www.serif.com/" style="fill-rule:evenodd;clip-rule:evenodd;stroke-linejoin:round;stroke-miterlimit:2;">
    <g transform="matrix(1,0,0,1,-135.785088,-816.336869)">
        <g transform="matrix(1.240303,0,0,1,0,0)">
            <g transform="matrix(0.806254,0,0,1,0,0)">
                <g transform="matrix(1.224609,0,0,1.224609,0,359.402753)">
                    <path d="M131.119,520.75C128.687,515.302 114.981,517.362 116.767,513.617C123.678,499.12 167.595,494.309 168.583,493.615C211.907,463.188 215.755,472.151 270.488,470.554C272.198,470.504 272.538,471.243 271.312,472.294C261.876,480.382 263.524,481.652 257.202,492.341C255.799,494.712 244.451,493.84 238.498,493.771C202.173,493.346 200.721,492.93 200.455,495.633C209.659,495.056 248.15,496.628 254.495,496.311C265.888,495.742 263.987,492.134 265.298,488.428C279.057,449.548 310.419,495.92 317.728,498.077C347.823,506.961 267.123,486.151 218.679,509.856C210.073,514.067 210.003,513.673 200.452,515.215C165.626,520.839 164.385,517.093 162.688,519.617C157.598,527.184 305.256,503.277 203.767,519.881C200.28,520.451 198.558,524.339 195.501,524.524C193.656,524.635 174.476,525.796 172.776,528.647C171.584,530.646 184.275,529.592 185.503,529.556C198.672,529.169 198.421,527.139 199.539,527.347C204.937,528.351 204.863,529.572 223.486,528.302C248.339,526.606 249.922,529.607 252.796,524.653C265.475,502.801 277.562,527.965 276.56,533.513C275.83,537.558 208.896,531.524 134.241,576.05C125.433,581.303 127.012,572.275 117.476,568.563C109.459,565.443 110.616,533.261 111.518,528.506C111.926,526.358 145.723,530.872 152.598,529.723C144.647,523.84 138.587,532.101 131.119,520.75ZM154.317,528.267C155.439,520.897 140.584,520.136 133.524,518.849C133.203,525.521 141.084,519.576 154.317,528.267ZM362.469,540.79C195.602,536.011 156.444,614.194 149.49,614.255C147.577,614.271 125.809,614.462 125.582,614.336C124.559,613.768 124.945,613.054 135.826,603.881C228.6,525.672 328.874,542.025 332.444,536.462C356.392,499.153 342.387,416.427 271.488,410.911C271.335,410.899 185.576,410.762 184.614,410.95C181.977,411.466 183.802,443.477 183.268,459.48C183.151,462.989 147.997,475.982 147.504,475.497C146.701,474.706 147.21,374.497 147.233,374.414C147.623,372.982 148.403,373.09 260.5,373.164C370.479,373.236 395.79,479.486 371.79,540.684C367.837,541.307 367.892,540.951 362.469,540.79ZM191.671,610.619C191.313,611.141 187.81,616.248 184.638,614.249C182.156,612.684 195.623,596.837 196.346,602.54C196.44,603.281 196.005,603.129 191.671,610.619ZM211.237,583.185C215.853,579.654 215.791,579.566 216.453,579.363C223.351,577.247 209.944,591.213 206.804,589.045C206.32,588.711 205.806,588.019 211.237,583.185ZM235.383,570.297C234.995,570.497 228.759,573.71 229.931,570.712C230.459,569.362 243.905,562.113 241.809,566.638C241.561,567.174 241.454,567.138 235.383,570.297Z" style="fill:white;"/>
                </g>
                <g transform="matrix(1.224609,0,0,1.224609,0,359.402753)">
                    <path d="M362.469,540.79C367.892,540.951 367.837,541.307 371.79,540.684C370.224,546.04 359.285,572.349 334.103,592.004C303.035,616.253 275.874,614.764 224.522,614.26C218.704,614.203 233.676,580.577 283.341,560.108C337.679,537.712 355.242,545.947 362.469,540.79Z" style="fill:rgb(112,211,252);"/>
                </g>
            </g>
        </g>
        <g transform="matrix(1.240303,0,0,1,0,0)">
            <g transform="matrix(1.194108,0,0,1.481056,-208.999913,-474.88227)">
                <g transform="matrix(0.157381,0,0,0.157381,448.951485,950.422503)">
                    <g transform="matrix(187.468884,0,0,187.468884,4325.94133,730.178766)">
                    </g>
                    <text x="534.196px" y="730.179px" style="font-family:'Poppins-SemiBold', 'Poppins';font-weight:600;font-size:187.469px;fill:rgb(112,211,252);">D<tspan x="779.592px 1017.678px 1240.953px 1467.603px 1623.202px 1854.352px 2081.001px 2315.9px 2499.619px 2737.705px 2900.803px 3056.402px 3281.552px 3505.952px 3719.105px 3902.824px 4129.474px " y="730.179px 730.179px 730.179px 730.179px 730.179px 730.179px 730.179px 730.179px 730.179px 730.179px 730.179px 730.179px 730.179px 730.179px 730.179px 730.179px 730.179px ">ave Rental System</tspan></text>
                </g>
                <g transform="matrix(15.622407,0,0,15.622407,-7668.727474,-5767.207565)">
                    <path d="M550.113,433.331L550.113,435.394L548.061,435.394L548.061,426.97L549.828,426.97C550.006,426.97 550.172,427.06 550.27,427.208L552.496,430.593L552.494,430.596L553.542,432.172L553.542,430.486C553.544,430.466 553.545,430.445 553.545,430.425L553.545,426.97L555.597,426.97L555.597,435.394L553.83,435.394C553.652,435.394 553.487,435.305 553.389,435.157L551.151,431.77L551.155,431.764L550.107,430.187L550.107,433.34L550.113,433.331ZM528.177,426.97C529.065,426.97 529.841,427.146 530.505,427.498C531.169,427.85 531.683,428.344 532.047,428.98C532.411,429.616 532.593,430.35 532.593,431.182C532.593,432.006 532.411,432.738 532.047,433.378C531.683,434.018 531.167,434.514 530.499,434.866C529.831,435.218 529.057,435.394 528.177,435.394L525.021,435.394L525.021,426.97L528.177,426.97ZM528.045,433.618C528.821,433.618 529.425,433.406 529.857,432.982C530.289,432.558 530.505,431.958 530.505,431.182C530.505,430.406 530.289,429.802 529.857,429.37C529.425,428.938 528.821,428.722 528.045,428.722L527.073,428.722L527.073,433.618L528.045,433.618ZM535.797,433.1L535.797,435.394L533.745,435.394L533.745,426.97L537.189,426.97C537.853,426.97 538.419,427.086 538.887,427.318C539.355,427.55 539.705,427.868 539.937,428.272C540.169,428.676 540.285,429.126 540.285,429.622C540.285,430.182 540.127,430.682 539.811,431.122C539.495,431.562 539.029,431.874 538.413,432.058L540.357,435.394L538.041,435.394L536.289,432.214L536.289,432.214C536.289,432.214 536.226,432.099 536.188,432.031C536.17,431.998 536.16,431.961 536.16,431.924L536.16,430.797C536.16,430.778 536.176,430.762 536.195,430.762C536.361,430.762 537.069,430.762 537.069,430.762C537.445,430.762 537.727,430.67 537.915,430.486C538.103,430.302 538.197,430.042 538.197,429.706C538.197,429.386 538.103,429.134 537.915,428.95C537.727,428.766 537.445,428.674 537.069,428.674L535.797,428.674L535.797,430.76L535.796,430.76L535.796,431.32L535.796,431.319L535.796,431.567L535.796,433.1L535.797,433.1ZM543.819,428.614C543.71,428.614 543.621,428.702 543.621,428.811L543.621,430.121C543.621,430.173 543.642,430.223 543.679,430.26C543.716,430.297 543.766,430.318 543.819,430.318L545.845,430.318L545.845,431.902L543.819,431.902C543.71,431.902 543.621,431.99 543.621,432.099L543.621,433.553C543.621,433.662 543.71,433.75 543.819,433.75L546.729,433.75L546.729,435.394L541.569,435.394L541.569,426.97L546.729,426.97L546.729,428.614L543.819,428.614ZM562.734,426.97C562.961,426.97 563.145,427.155 563.145,427.382L563.145,428.614L560.913,428.614L560.913,435.394L558.861,435.394L558.861,429C558.861,428.787 558.689,428.614 558.476,428.614L556.77,428.614C556.732,428.614 556.697,428.599 556.67,428.573C556.644,428.547 556.629,428.511 556.629,428.474L556.629,426.97L562.734,426.97Z" style="fill:white;"/>
                </g>
            </g>
        </g>
    </g>
</svg>
